<svg width="24" height="24" viewBox="0 0 24 24" fill="none" xmlns="http://www.w3.org/2000/svg">
<path d="M7.79925 16.3495C7.878 16.4087 7.96764 16.4518 8.06304 16.4763C8.15844 16.5008 8.25774 16.5063 8.35526 16.4924C8.45278 16.4786 8.54661 16.4456 8.63141 16.3955C8.7162 16.3454 8.79029 16.279 8.84944 16.2003C9.3036 15.5948 9.8925 15.1033 10.5695 14.7648C11.2465 14.4263 11.993 14.2501 12.7499 14.2501C13.5068 14.25 14.2533 14.4262 14.9303 14.7647C15.6074 15.1032 16.1963 15.5946 16.6505 16.2001C16.7093 16.2796 16.7834 16.3467 16.8683 16.3975C16.9532 16.4483 17.0473 16.4818 17.1452 16.496C17.2431 16.5103 17.3428 16.505 17.4387 16.4806C17.5346 16.4561 17.6246 16.4129 17.7037 16.3535C17.7828 16.2941 17.8494 16.2196 17.8996 16.1343C17.9498 16.049 17.9826 15.9547 17.9962 15.8567C18.0097 15.7587 18.0038 15.659 17.9787 15.5633C17.9535 15.4676 17.9097 15.3778 17.8497 15.2992C17.1851 14.4086 16.2985 13.7078 15.2785 13.2667C15.837 12.7568 16.2282 12.09 16.4009 11.3538C16.5736 10.6176 16.5197 9.84635 16.2462 9.14133C15.9728 8.43631 15.4926 7.83043 14.8687 7.4032C14.2447 6.97597 13.5062 6.74735 12.75 6.74735C11.9938 6.74735 11.2553 6.97597 10.6313 7.4032C10.0074 7.83043 9.5272 8.43631 9.25376 9.14133C8.98032 9.84635 8.92641 10.6176 9.0991 11.3538C9.2718 12.09 9.66304 12.7568 10.2215 13.2667C9.2014 13.7078 8.3148 14.4087 7.65009 15.2993C7.59093 15.3781 7.54785 15.4677 7.52332 15.5631C7.4988 15.6585 7.4933 15.7578 7.50715 15.8553C7.521 15.9529 7.55393 16.0467 7.60405 16.1315C7.65416 16.2163 7.72049 16.2904 7.79925 16.3495ZM10.5 10.5C10.5 10.055 10.632 9.61998 10.8792 9.24997C11.1264 8.87996 11.4778 8.59157 11.889 8.42127C12.3001 8.25097 12.7525 8.20642 13.189 8.29323C13.6254 8.38005 14.0263 8.59434 14.341 8.90901C14.6557 9.22368 14.87 9.62459 14.9568 10.061C15.0436 10.4975 14.999 10.9499 14.8287 11.361C14.6584 11.7722 14.37 12.1236 14 12.3708C13.63 12.618 13.195 12.75 12.75 12.75C12.1535 12.7493 11.5816 12.5121 11.1597 12.0903C10.7379 11.6684 10.5007 11.0965 10.5 10.5ZM19.5 2.25H6C5.60231 2.25045 5.22104 2.40863 4.93983 2.68983C4.65863 2.97104 4.50045 3.35231 4.5 3.75V5.625H3C2.80109 5.625 2.61032 5.70402 2.46967 5.84467C2.32902 5.98532 2.25 6.17609 2.25 6.375C2.25 6.57391 2.32902 6.76468 2.46967 6.90533C2.61032 7.04598 2.80109 7.125 3 7.125H4.5V9.375H3C2.80109 9.375 2.61032 9.45402 2.46967 9.59467C2.32902 9.73532 2.25 9.92609 2.25 10.125C2.25 10.3239 2.32902 10.5147 2.46967 10.6553C2.61032 10.796 2.80109 10.875 3 10.875H4.5V13.125H3C2.80109 13.125 2.61032 13.204 2.46967 13.3447C2.32902 13.4853 2.25 13.6761 2.25 13.875C2.25 14.0739 2.32902 14.2647 2.46967 14.4053C2.61032 14.546 2.80109 14.625 3 14.625H4.5V16.875H3C2.80109 16.875 2.61032 16.954 2.46967 17.0947C2.32902 17.2353 2.25 17.4261 2.25 17.625C2.25 17.8239 2.32902 18.0147 2.46967 18.1553C2.61032 18.296 2.80109 18.375 3 18.375H4.5V20.25C4.50045 20.6477 4.65863 21.029 4.93983 21.3102C5.22104 21.5914 5.60231 21.7496 6 21.75H19.5C19.8977 21.7496 20.279 21.5914 20.5602 21.3102C20.8414 21.029 20.9996 20.6477 21 20.25V3.75C20.9996 3.35231 20.8414 2.97104 20.5602 2.68983C20.279 2.40863 19.8977 2.25045 19.5 2.25ZM19.5 20.25L6 20.2509V3.75H19.5V20.25Z" fill="#360732"/>
</svg>
