<svg width="24" height="24" viewBox="0 0 24 24" fill="none" xmlns="http://www.w3.org/2000/svg">
<path d="M19.1251 8.27315C19.307 8.27304 19.4863 8.31707 19.6475 8.40146C19.8086 8.48584 19.947 8.60807 20.0506 8.75765L20.1106 8.85665C20.6566 9.74425 20.9621 10.7588 20.9969 11.8003C21.0316 12.8419 20.7945 13.8745 20.3089 14.7966C19.8233 15.7186 19.1059 16.4983 18.2273 17.0588C17.3488 17.6193 16.3394 17.9413 15.2986 17.9931L15.0001 18.0006L11.3326 17.9991L12.4156 19.0821C12.6065 19.2727 12.7226 19.5255 12.7427 19.7945C12.7628 20.0635 12.6855 20.3308 12.5251 20.5476L12.4156 20.6736C12.2249 20.8639 11.9723 20.9795 11.7036 20.9993C11.4349 21.0191 11.1681 20.9419 10.9516 20.7816L10.8256 20.6736L7.82256 17.6706C7.63203 17.4802 7.51619 17.2276 7.49609 16.959C7.476 16.6903 7.55299 16.4233 7.71306 16.2066L7.82256 16.0791L10.8256 13.0776C11.0266 12.8782 11.2954 12.7619 11.5783 12.7519C11.8613 12.742 12.1377 12.8391 12.3522 13.0239C12.5667 13.2087 12.7037 13.4676 12.7357 13.7489C12.7678 14.0303 12.6925 14.3133 12.5251 14.5416L12.4156 14.6676L11.3341 15.7491H15.0001C15.9519 15.7493 16.8682 15.3875 17.5631 14.7371C18.2581 14.0867 18.6797 13.1964 18.7426 12.2466L18.7501 12.0006C18.7501 11.2581 18.5341 10.5666 18.1636 9.98465C18.0593 9.814 18.0024 9.61865 17.9988 9.41871C17.9951 9.21877 18.0448 9.02147 18.1428 8.84713C18.2407 8.67279 18.3833 8.5277 18.556 8.42681C18.7287 8.32593 18.9251 8.27288 19.1251 8.27315ZM11.5801 3.32765C11.7705 3.13712 12.0231 3.02128 12.2917 3.00118C12.5604 2.98109 12.8274 3.05807 13.0441 3.21815L13.1701 3.32765L16.1731 6.32915L16.2826 6.45665C16.4238 6.64778 16.501 6.87876 16.5028 7.11644C16.5047 7.35412 16.4313 7.58629 16.2931 7.77964L16.1731 7.92065L13.1701 10.9236L13.0441 11.0316C12.8531 11.1732 12.6222 11.2505 12.3845 11.2527C12.1468 11.2548 11.9146 11.1817 11.7211 11.0436L11.5801 10.9236L11.4706 10.7976C11.3289 10.6064 11.2516 10.3751 11.2497 10.1371C11.2478 9.89911 11.3215 9.66664 11.4601 9.47315L11.5801 9.33215L12.6616 8.24915H9.00006C8.04798 8.249 7.13149 8.61099 6.43649 9.26171C5.74149 9.91242 5.32001 10.8031 5.25756 11.7531L5.25006 12.0006C5.25006 12.6321 5.40606 13.2276 5.68206 13.7511L5.84706 14.0271C5.99842 14.2822 6.04292 14.5868 5.97087 14.8745C5.89882 15.1622 5.71606 15.4099 5.46234 15.5635C5.20862 15.7172 4.90449 15.7644 4.61612 15.695C4.32776 15.6255 4.07849 15.445 3.92256 15.1926C3.36577 14.3065 3.05044 13.2901 3.00789 12.2444C2.96534 11.1988 3.19705 10.1601 3.68 9.23167C4.16295 8.30321 4.88036 7.51723 5.76099 6.95175C6.64162 6.38628 7.65484 6.06097 8.70006 6.00815L9.00006 6.00065L12.6601 5.99915L11.5801 4.91915L11.4706 4.79165C11.3105 4.57494 11.2335 4.30799 11.2536 4.03932C11.2737 3.77066 11.3895 3.51813 11.5801 3.32765Z" fill="#0EBB97"/>
</svg>
