<svg width="11" height="11" viewBox="0 0 11 11" fill="none" xmlns="http://www.w3.org/2000/svg">
<path d="M11 5.5C11 6.95869 10.4205 8.35764 9.38909 9.38909C8.35764 10.4205 6.95869 11 5.5 11C4.04131 11 2.64236 10.4205 1.61091 9.38909C0.579463 8.35764 0 6.95869 0 5.5C0 4.04131 0.579463 2.64236 1.61091 1.61091C2.64236 0.579463 4.04131 0 5.5 0C6.95869 0 8.35764 0.579463 9.38909 1.61091C10.4205 2.64236 11 4.04131 11 5.5ZM8.27063 3.41687C8.22152 3.36794 8.16304 3.32941 8.0987 3.30359C8.03436 3.27776 7.96547 3.26518 7.89616 3.2666C7.82685 3.26801 7.75853 3.28338 7.69529 3.3118C7.63205 3.34022 7.5752 3.3811 7.52812 3.432L5.14044 6.47419L3.7015 5.03456C3.60375 4.94348 3.47447 4.8939 3.34089 4.89626C3.20731 4.89861 3.07986 4.95273 2.98538 5.0472C2.89091 5.14167 2.8368 5.26912 2.83444 5.4027C2.83209 5.53629 2.88167 5.66557 2.97275 5.76331L4.79187 7.58312C4.84088 7.63204 4.89924 7.67059 4.96346 7.69646C5.02769 7.72234 5.09647 7.73501 5.1657 7.73373C5.23493 7.73244 5.30319 7.71723 5.36642 7.68899C5.42964 7.66076 5.48653 7.62007 5.53369 7.56938L8.27819 4.13875C8.37175 4.04147 8.42344 3.91138 8.42215 3.77641C8.42087 3.64144 8.36671 3.51236 8.27131 3.41687H8.27063Z" fill="white"/>
</svg>
