<svg width="17" height="17" viewBox="0 0 17 17" fill="none" xmlns="http://www.w3.org/2000/svg">
<path d="M8.5 17C10.7543 17 12.9163 16.1045 14.5104 14.5104C16.1045 12.9163 17 10.7543 17 8.5C17 6.24566 16.1045 4.08365 14.5104 2.48959C12.9163 0.895533 10.7543 0 8.5 0C6.24566 0 4.08365 0.895533 2.48959 2.48959C0.895533 4.08365 0 6.24566 0 8.5C0 10.7543 0.895533 12.9163 2.48959 14.5104C4.08365 16.1045 6.24566 17 8.5 17ZM9.48812 6.99975L8.42562 11.9988C8.35125 12.3601 8.45644 12.5651 8.74862 12.5651C8.95475 12.5651 9.26606 12.4908 9.4775 12.3038L9.384 12.7458C9.07906 13.1134 8.4065 13.3811 7.82744 13.3811C7.0805 13.3811 6.76281 12.9327 6.96894 11.9797L7.75306 8.29494C7.82106 7.98362 7.75944 7.871 7.44813 7.79556L6.96894 7.7095L7.05606 7.30469L9.48919 6.99975H9.48812ZM8.5 5.84375C8.21821 5.84375 7.94796 5.73181 7.7487 5.53255C7.54944 5.33329 7.4375 5.06304 7.4375 4.78125C7.4375 4.49946 7.54944 4.22921 7.7487 4.02995C7.94796 3.83069 8.21821 3.71875 8.5 3.71875C8.78179 3.71875 9.05204 3.83069 9.2513 4.02995C9.45056 4.22921 9.5625 4.49946 9.5625 4.78125C9.5625 5.06304 9.45056 5.33329 9.2513 5.53255C9.05204 5.73181 8.78179 5.84375 8.5 5.84375Z" fill="#ABABAB"/>
</svg>
