<svg width="14" height="14" viewBox="0 0 14 14" fill="none" xmlns="http://www.w3.org/2000/svg">
<g clip-path="url(#clip0_191_191)">
<path d="M13.3823 8.69279C12.5227 12.4448 9.02858 14.7256 5.58481 13.7903C2.13602 12.855 0.0395982 9.05378 0.899309 5.3072C1.75897 1.5552 5.24798 -0.725601 8.69677 0.209719C12.1405 1.13952 14.242 4.94073 13.3823 8.69279Z" fill="url(#paint0_linear_191_191)"/>
<path d="M10.2041 6.12852C10.3298 5.19883 9.68133 4.6957 8.78659 4.36211L9.07813 3.09883L8.3744 2.90742L8.09291 4.13789C7.90692 4.08867 7.71591 4.03945 7.52489 3.9957L7.80639 2.75977L7.10265 2.56836L6.81613 3.82617C6.66031 3.78789 6.50951 3.74961 6.36373 3.71133V3.70586L5.38856 3.44336L5.20258 4.26367C5.20258 4.26367 5.72535 4.39492 5.7153 4.40039C6.00181 4.47695 6.05208 4.68477 6.04203 4.84883L5.71027 6.28711C5.73038 6.29258 5.75551 6.29805 5.78567 6.31445C5.76054 6.30899 5.7354 6.30352 5.71027 6.29258L5.24782 8.30508C5.21263 8.39805 5.12215 8.54024 4.92611 8.48555C4.93114 8.49649 4.41339 8.34883 4.41339 8.34883L4.06152 9.2293L4.9814 9.48086C5.15231 9.53008 5.31819 9.57383 5.48407 9.62305L5.19252 10.8973L5.89626 11.0887L6.1878 9.82539C6.37881 9.88008 6.56983 9.93477 6.75079 9.98399L6.46427 11.2418L7.168 11.4332L7.45955 10.159C8.66595 10.4051 9.57075 10.3066 9.94775 9.11992C10.2544 8.16836 9.93267 7.61602 9.29931 7.25508C9.76679 7.14024 10.1136 6.80664 10.2041 6.12852ZM8.59055 8.58946C8.3744 9.54102 6.89656 9.02695 6.41903 8.8957L6.80608 7.20586C7.28361 7.33711 8.82177 7.59414 8.59055 8.58946ZM8.81172 6.11211C8.61065 6.98164 7.38415 6.53867 6.98704 6.4293L7.33891 4.89805C7.73601 5.00742 9.01781 5.20977 8.81172 6.11211Z" fill="white"/>
</g>
<defs>
<linearGradient id="paint0_linear_191_191" x1="7.13719" y1="-0.00336" x2="7.13719" y2="13.9986" gradientUnits="userSpaceOnUse">
<stop stop-color="#F1590E"/>
<stop offset="1" stop-color="#F1590E"/>
</linearGradient>
<clipPath id="clip0_191_191">
<rect width="12.8683" height="14" fill="white" transform="translate(0.706543)"/>
</clipPath>
</defs>
</svg>
