<svg width="24" height="24" viewBox="0 0 24 24" fill="none" xmlns="http://www.w3.org/2000/svg">
<path d="M8.74201 8.682C7.66901 9.594 7.27601 11.257 8.20201 12.591C9.07219 13.8422 10.1585 14.9282 11.41 15.798C12.744 16.724 14.407 16.331 15.319 15.258L15.329 15.263C16.493 15.803 17.73 16.172 19 16.36V19H18.996C11.022 19.011 4.99101 12.911 5.00001 5.004V5H7.64001V5.001C7.82801 6.271 8.19801 7.507 8.73701 8.671L8.74201 8.681V8.682ZM19 21H20C20.2652 21 20.5196 20.8946 20.7071 20.7071C20.8947 20.5196 21 20.2652 21 20V15.498C21.0002 15.2581 20.9142 15.0261 20.7576 14.8444C20.601 14.6627 20.3843 14.5433 20.147 14.508L19.293 14.382C18.2127 14.2217 17.161 13.9071 16.17 13.448L15.417 13.099C15.2056 13.001 14.9665 12.98 14.7412 13.0395C14.5159 13.0991 14.3185 13.2354 14.183 13.425L13.842 13.902C13.543 14.321 12.972 14.448 12.551 14.155C11.4955 13.4213 10.5791 12.5053 9.84501 11.45C9.55201 11.028 9.68001 10.457 10.098 10.159L10.575 9.819C10.7649 9.68348 10.9013 9.48586 10.9609 9.26033C11.0204 9.0348 10.9992 8.79556 10.901 8.584L10.551 7.83C10.093 6.84 9.77801 5.788 9.61801 4.707L9.49101 3.853C9.45575 3.61571 9.33636 3.39901 9.15462 3.24242C8.97288 3.08583 8.7409 2.99979 8.50101 3H4.00001C3.73479 3 3.48044 3.10536 3.2929 3.29289C3.10537 3.48043 3.00001 3.73478 3.00001 4V5.001C2.99001 14.008 9.91001 21.013 18.999 21H19Z" fill="#360732"/>
</svg>
