<svg width="19" height="19" viewBox="0 0 19 19" fill="none" xmlns="http://www.w3.org/2000/svg">
<g clip-path="url(#clip0_180_392)">
<path d="M9.5 7.66797C11.2831 7.66797 12.7285 6.22251 12.7285 4.43945C12.7285 2.65639 11.2831 1.21094 9.5 1.21094C7.71694 1.21094 6.27148 2.65639 6.27148 4.43945C6.27148 6.22251 7.71694 7.66797 9.5 7.66797Z" fill="#F1590E"/>
<path d="M16.0312 7.66797C17.1585 7.66797 18.0723 6.75418 18.0723 5.62695C18.0723 4.49973 17.1585 3.58594 16.0312 3.58594C14.904 3.58594 13.9902 4.49973 13.9902 5.62695C13.9902 6.75418 14.904 7.66797 16.0312 7.66797Z" fill="#F1590E"/>
<path d="M2.96875 7.66797C4.09597 7.66797 5.00977 6.75418 5.00977 5.62695C5.00977 4.49973 4.09597 3.58594 2.96875 3.58594C1.84153 3.58594 0.927734 4.49973 0.927734 5.62695C0.927734 6.75418 1.84153 7.66797 2.96875 7.66797Z" fill="#F1590E"/>
<path d="M4.97971 9.50071C4.17629 8.84247 3.44869 8.9296 2.51973 8.9296C1.13035 8.9296 0 10.0533 0 11.4341V15.4868C0 16.0865 0.489473 16.5741 1.09139 16.5741C3.69001 16.5741 3.37695 16.6211 3.37695 16.4621C3.37695 13.5903 3.03681 11.4843 4.97971 9.50071Z" fill="#F1590E"/>
<path d="M10.3826 8.94467C8.76002 8.80933 7.34967 8.94623 6.13319 9.95033C4.09748 11.5809 4.48924 13.7764 4.48924 16.4623C4.48924 17.1729 5.06741 17.7619 5.78882 17.7619C13.6219 17.7619 13.9337 18.0145 14.3982 16.9859C14.5505 16.638 14.5088 16.7486 14.5088 13.4208C14.5088 10.7776 12.2201 8.94467 10.3826 8.94467Z" fill="#F1590E"/>
<path d="M16.4795 8.92951C15.5455 8.92951 14.8219 8.84326 14.0195 9.50062C15.9479 11.4695 15.6223 13.4318 15.6223 16.462C15.6223 16.6221 15.3624 16.574 17.8689 16.574C18.4923 16.574 18.9992 16.069 18.9992 15.4481V11.434C18.9992 10.0532 17.8689 8.92951 16.4795 8.92951Z" fill="#F1590E"/>
</g>
<defs>
<clipPath id="clip0_180_392">
<rect width="19" height="19" fill="white"/>
</clipPath>
</defs>
</svg>
